<svg id="vastcss-logo" data-name="vastcss" xmlns="http://www.w3.org/2000/svg" xmlns:xlink="http://www.w3.org/1999/xlink" viewBox="0 0 512 138">
	<defs>
		<linearGradient id="vastcss-gg" x1="170" y1="-86" x2="341" y2="189" gradientUnits="userSpaceOnUse">
			<stop offset="0" stop-color="#009245" />
			<stop offset="1" stop-color="#8cc63f" />
		</linearGradient>
	</defs>
	<title>vastcss logo</title>
	<g fill="url(#vastcss-gg)">
		<circle cx="347" cy="119" r="6" />
		<circle cx="347" cy="93" r="6" />
		<path d="M356.25,96.71v10.91c0,16.49,8.56,25.26,24.27,25.26h18.08v-11H380.51c-8.69,0-12.25-3.91-12.25-14.23V96.71c0-9.49,3.57-13.52,12.25-13.52h18.08V72H380.51C364.81,72,356.25,81.05,356.25,96.71Z" />
		<path d="M427.49,96.47c-.83-.24-3-.36-4.52-.59-6.54-.59-9.63-2.37-9.63-6,0-4.27,3.21-6.4,9.52-6.4h22.48V72.28H422.85c-10.59,0-21.53,4.74-21.53,17.55,0,10.56,8.21,15.89,20.46,17.2l4.52.47c6.66.83,8.92,2.73,8.92,6.64,0,5.58-3.09,7.59-11.18,7.59H403V133H424c13.8,0,23.08-5.93,23.08-18.86C447.12,104.06,440,97.78,427.49,96.47Z" />
		<path d="M476.37,96.47c-.83-.24-3-.36-4.52-.59-6.54-.59-9.64-2.37-9.64-6,0-4.27,3.21-6.4,9.52-6.4h22.48V72.28H471.73c-10.59,0-21.53,4.74-21.53,17.55,0,10.56,8.21,15.89,20.46,17.2l4.52.47c6.66.83,8.92,2.73,8.92,6.64,0,5.58-3.09,7.59-11.18,7.59H451.87V133h21.06c13.8,0,23.08-5.93,23.08-18.86C496,104.06,488.86,97.78,476.37,96.47Z" />
		<path d="M256,21.62c-21.09,0-37.74,8.22-37.74,30.83a33.59,33.59,0,0,0,4.28,16.92c2.54,4,7.77,7.59,11.1,9.49,3.65,1.9,10.62,3.79,14,4.58l7,1.42c7.45,1.42,12.21,3,14.27,4.43,2.22,1.42,3.33,4,3.33,7.75,0,12.17-4,16.13-16,16.13H220.3l-31.17-87L196.4,5h-25L142.78,87.74,114.15,5h-25l28,81h11.29l7.78,22.4H124.86l8.26,23.93h19.59l9-25.45h34.57l9,25.45,50.91.16C279.65,132.45,293,120.9,293,97c0-13.12-5.71-20.55-14.43-25-6.34-3.16-11.58-4.43-20-6.17a96.88,96.88,0,0,1-13-3.16c-2.06-.79-3.33-1.42-4-2.21a13.13,13.13,0,0,1-2.54-8.06c0-8.85,3.81-12.33,17-12.33h60.26v92.17h20.77V40.12h31.87V21.62ZM168.49,87.55l10.31-28.3,10.31,28.3Z" />
		<path d="M127,88,134,107H82L75,88Z" />
		<path d="M68,88,75,107H22L16,88Z" />
	</g>
</svg>
